<?xml version="1.0" encoding="utf-8"?>
<!-- Generator: Adobe Illustrator 16.0.0, SVG Export Plug-In . SVG Version: 6.00 Build 0)  -->
<!DOCTYPE svg PUBLIC "-//W3C//DTD SVG 1.1//EN" "http://www.w3.org/Graphics/SVG/1.1/DTD/svg11.dtd">
<svg version="1.1" id="Layer_1" xmlns="http://www.w3.org/2000/svg" xmlns:xlink="http://www.w3.org/1999/xlink" x="0px" y="0px"
	 width="600px" height="300px" viewBox="0 0 600 300" enable-background="new 0 0 600 300" xml:space="preserve">
<path fill="none" stroke="#000000" stroke-miterlimit="10" d="M182.543,74.065c1.609,13.652-12.998,27.646-19.604,38.625
	c-1.494,2.482-2.102,5.248-4.309,7.026"/>
<path fill="none" stroke="#000000" stroke-miterlimit="10" d="M157.543,81.674c-2.322,16.404,19.655,28.891,29.348,38.587"/>
<path fill="none" stroke="#000000" stroke-miterlimit="10" d="M197.217,92.543c-0.597,8.67-9.993,32.011,1.08,36.898
	c11.556,5.102,13.676-5.071,14.693-13.01c0.919-7.171,1.618-13.262,1.618-20.627"/>
<path fill="none" stroke="#000000" stroke-miterlimit="10" d="M224.935,72.435c11.577,2.687,24.919,0.543,36.935,0.543
	c-2.986,0.002-12.209-2.116-15.247-0.556c-3.117,1.601-1.518,1.717-1.564,4.894c-0.132,8.992,3.264,17.882,3.246,27.183
	c-0.012,6.041,0.927,12.305-4.785,15.94c-8.523,5.423-12.852-3.32-12.063-11.047"/>
<path fill="none" stroke="#000000" stroke-miterlimit="10" d="M260.804,98.521c1.174-1.639,2.402-3.062,3.759-4.358
	c5.663,4.66-0.87,18.007,0.593,23.933c1.084,4.394,10.76,7.199,11.409,1.078"/>
<path fill="none" stroke="#000000" stroke-miterlimit="10" d="M264.065,86.022c0.347,0.73,0.977,1.326,1.274,2.13
	c0.022,0.023-0.076-1.051-0.188-1.587"/>
<path fill="none" stroke="#000000" stroke-miterlimit="10" d="M291.783,66.696c0.101,14.948,1.717,29.692,1.717,44.798
	c0,3.015,0,6.03,0,9.045c0-8.171-0.723-17.104,0.229-25.279c0.544-4.675-1.038-4.372,4.624-5.868
	c7.087-1.873,15.71-0.299,22.864-0.736c0.41-7.14-0.717-13.816-0.717-21.013c0,18.625,0,56.356,0,56.356"/>
<path fill="none" stroke="#000000" stroke-miterlimit="10" d="M345.043,89.826c1.979-0.93-3.047-1.629-4.861-1.602
	c-6.915,0.104-10.673,4.965-11.451,10.836c-0.653,4.93,0.419,17.247,5.565,19.076c11.082,3.938,18.217-18.998,13.98-26.196
	c0.113,3.354-0.817,21.144,7.093,19.625"/>
<path fill="none" stroke="#000000" stroke-miterlimit="10" d="M374.935,82.761c-1.084,2.525-4.422,2.405-6.452,4.322
	c-2.302,2.174-3.252,5.557-3.766,8.578c-1.227,7.212-1.767,14.91,4.389,19.222c10.688,7.489,16.538-2.232,17.665-12.133
	c0.822-7.227,0.689-14.938-7.438-16.633c-11.354-2.368-9.659,4.376-13.638,10.231"/>
</svg>
